<svg version="1.1" xmlns="http://www.w3.org/2000/svg" xmlns:xlink="http://www.w3.org/1999/xlink" preserveAspectRatio="xMidYMid meet" viewBox="115 135 290 290" width="640" height="640"><defs><path d="M271.88 135.48L277.73 136.08L283.51 136.9L289.21 137.95L294.83 139.22L300.36 140.7L305.81 142.4L311.16 144.3L316.42 146.4L321.57 148.7L326.61 151.19L331.54 153.87L336.36 156.74L341.05 159.78L345.61 162.99L350.05 166.37L354.34 169.92L358.5 173.63L362.51 177.49L366.37 181.5L370.08 185.66L373.63 189.95L377.01 194.39L380.22 198.95L383.26 203.64L386.13 208.46L388.81 213.39L391.3 218.43L393.6 223.58L395.7 228.84L397.6 234.19L399.3 239.64L400.78 245.17L402.05 250.79L403.1 256.49L403.92 262.27L404.52 268.12L404.88 274.03L405 280L404.88 285.97L404.63 290L323.33 290L285 210L265 210L303.33 290L280 290L240 210L220 210L270 310L312.92 310L352.15 391.89L350.05 393.63L345.61 397.01L341.05 400.22L336.36 403.26L331.54 406.13L326.61 408.81L321.57 411.3L316.42 413.6L311.16 415.7L305.81 417.6L300.36 419.3L294.83 420.78L289.21 422.05L283.51 423.1L277.73 423.92L271.88 424.52L265.97 424.88L260 425L254.03 424.88L248.12 424.52L242.27 423.92L236.49 423.1L230.79 422.05L225.17 420.78L219.64 419.3L214.19 417.6L208.84 415.7L203.58 413.6L198.43 411.3L193.39 408.81L188.46 406.13L183.64 403.26L178.95 400.22L174.39 397.01L169.95 393.63L165.66 390.08L161.5 386.37L157.49 382.51L153.63 378.5L149.92 374.34L146.37 370.05L142.99 365.61L139.78 361.05L136.74 356.36L133.87 351.54L131.19 346.61L128.7 341.57L126.4 336.42L124.3 331.16L122.4 325.81L120.7 320.36L119.22 314.83L117.95 309.21L116.9 303.51L116.08 297.73L115.48 291.88L115.12 285.97L115 280L115.12 274.03L115.48 268.12L116.08 262.27L116.9 256.49L117.95 250.79L119.22 245.17L120.7 239.64L122.4 234.19L124.3 228.84L126.4 223.58L128.7 218.43L131.19 213.39L133.87 208.46L136.74 203.64L139.78 198.95L142.99 194.39L146.37 189.95L149.92 185.66L153.63 181.5L157.49 177.49L161.5 173.63L165.66 169.92L169.95 166.37L174.39 162.99L178.95 159.78L183.64 156.74L188.46 153.87L193.39 151.19L198.43 148.7L203.58 146.4L208.84 144.3L214.19 142.4L219.64 140.7L225.17 139.22L230.79 137.95L236.49 136.9L242.27 136.08L248.12 135.48L254.03 135.12L260 135L265.97 135.12L271.88 135.48ZM399.3 320.36L397.6 325.81L395.7 331.16L393.6 336.42L391.3 341.57L388.81 346.61L386.13 351.54L383.26 356.36L380.22 361.05L377.01 365.61L373.63 370.05L370.08 374.34L366.37 378.5L365.95 378.94L332.92 310L401.87 310L400.78 314.83L399.3 320.36ZM170 310L200 250L230 310L250 310L200 210L150 310L170 310Z" id="bUCFxZEeh"></path></defs><g><g><g><use xlink:href="#bUCFxZEeh" opacity="1" fill="#ffffff" fill-opacity="1"></use></g></g></g></svg>